<svg width="13" height="14" viewBox="0 0 13 14" fill="none" xmlns="http://www.w3.org/2000/svg">
<path d="M5.38717 8.43109L3.83843 6.88238C3.74613 6.79007 3.63011 6.74284 3.49037 6.74071C3.35062 6.73857 3.23246 6.78579 3.13588 6.88238C3.03931 6.97895 2.99102 7.09604 2.99102 7.23364C2.99102 7.37124 3.03931 7.48833 3.13588 7.58491L4.96537 9.41439C5.08588 9.5349 5.22648 9.59516 5.38717 9.59516C5.54784 9.59516 5.68844 9.5349 5.80895 9.41439L9.51792 5.70543C9.61023 5.61313 9.65745 5.4971 9.65958 5.35736C9.66173 5.21762 9.61451 5.09945 9.51792 5.00288C9.42134 4.9063 9.30425 4.85801 9.16665 4.85801C9.02905 4.85801 8.91196 4.9063 8.81539 5.00288L5.38717 8.43109ZM6.33443 13.3336C5.45848 13.3336 4.63512 13.1674 3.86437 12.835C3.0936 12.5025 2.42314 12.0514 1.853 11.4815C1.28284 10.9116 0.831472 10.2414 0.498884 9.47098C0.166295 8.70057 0 7.87738 0 7.00143C0 6.12547 0.166222 5.30211 0.498667 4.53136C0.831111 3.76059 1.28228 3.09014 1.85217 2.51999C2.42207 1.94984 3.09223 1.49847 3.86265 1.16588C4.63306 0.833287 5.45625 0.666992 6.3322 0.666992C7.20816 0.666992 8.03151 0.833215 8.80227 1.16566C9.57304 1.4981 10.2435 1.94927 10.8136 2.51916C11.3838 3.08906 11.8352 3.75922 12.1678 4.52964C12.5003 5.30005 12.6666 6.12324 12.6666 6.99919C12.6666 7.87515 12.5004 8.6985 12.168 9.46926C11.8355 10.24 11.3844 10.9105 10.8145 11.4806C10.2446 12.0508 9.57441 12.5022 8.80398 12.8347C8.03357 13.1673 7.21039 13.3336 6.33443 13.3336Z" fill="currentColor"/>
</svg>
