<svg width="13" height="12" viewBox="0 0 13 12" fill="none" xmlns="http://www.w3.org/2000/svg">
<path d="M0.61687 11.6666C0.50387 11.6666 0.402386 11.639 0.31242 11.5837C0.222453 11.5285 0.152481 11.4557 0.102503 11.3653C0.0505139 11.2756 0.0219196 11.1783 0.0167196 11.0736C0.0115196 10.9689 0.0397695 10.8652 0.10147 10.7626L5.80864 0.904022C5.87034 0.801333 5.94755 0.725417 6.04029 0.676273C6.13302 0.627117 6.23067 0.602539 6.33324 0.602539C6.4358 0.602539 6.53345 0.627117 6.62619 0.676273C6.71892 0.725417 6.79614 0.801333 6.85784 0.904022L12.565 10.7626C12.6267 10.8652 12.655 10.9689 12.6498 11.0736C12.6446 11.1783 12.616 11.2756 12.564 11.3653C12.514 11.4557 12.444 11.5285 12.3541 11.5837C12.2641 11.639 12.1626 11.6666 12.0496 11.6666H0.61687ZM6.33324 9.87172C6.4858 9.87172 6.61369 9.82012 6.71689 9.71692C6.82009 9.61372 6.87169 9.48584 6.87169 9.33327C6.87169 9.18071 6.82009 9.05282 6.71689 8.94962C6.61369 8.84642 6.4858 8.79482 6.33324 8.79482C6.18067 8.79482 6.05279 8.84642 5.94959 8.94962C5.84639 9.05282 5.79479 9.18071 5.79479 9.33327C5.79479 9.48584 5.84639 9.61372 5.94959 9.71692C6.05279 9.82012 6.18067 9.87172 6.33324 9.87172ZM6.33345 8.12816C6.47519 8.12816 6.59391 8.08024 6.68964 7.98441C6.78536 7.88857 6.83322 7.76983 6.83322 7.62817V5.29481C6.83322 5.15314 6.78529 5.03439 6.68942 4.93857C6.59354 4.84274 6.47474 4.79482 6.33302 4.79482C6.19129 4.79482 6.07256 4.84274 5.97684 4.93857C5.88111 5.03439 5.83325 5.15314 5.83325 5.29481V7.62817C5.83325 7.76983 5.88119 7.88857 5.97705 7.98441C6.07293 8.08024 6.19173 8.12816 6.33345 8.12816Z" fill="currentColor"/>
</svg>
