<svg width="12" height="7" viewBox="0 0 12 7" fill="none" xmlns="http://www.w3.org/2000/svg">
  <path d="M5.99771 6.01136C5.87719 6.01136 5.76502 5.99213 5.66118 5.95366C5.55733 5.91519 5.45862 5.84917 5.36503 5.75558L0.870808 1.26136C0.732341 1.12291 0.661508 0.948876 0.658308 0.739259C0.655091 0.529643 0.725925 0.3524 0.870808 0.207533C1.01567 0.0626666 1.19131 -0.00976562 1.39771 -0.00976562C1.60411 -0.00976562 1.77974 0.0626666 1.92461 0.207533L5.99771 4.28063L10.0708 0.207533C10.2093 0.0690833 10.3833 -0.00175007 10.5929 -0.00496674C10.8025 -0.00816674 10.9797 0.0626666 11.1246 0.207533C11.2695 0.3524 11.3419 0.528042 11.3419 0.734459C11.3419 0.940859 11.2695 1.11649 11.1246 1.26136L6.63038 5.75558C6.5368 5.84917 6.43808 5.91519 6.33423 5.95366C6.2304 5.99213 6.11822 6.01136 5.99771 6.01136Z" fill="currentColor"/>
</svg>